<?xml version="1.0" standalone="no"?>
<!DOCTYPE svg PUBLIC "-//W3C//DTD SVG 20010904//EN"
 "http://www.w3.org/TR/2001/REC-SVG-20010904/DTD/svg10.dtd">
<svg version="1.0" xmlns="http://www.w3.org/2000/svg"
 width="700.000000pt" height="700.000000pt" viewBox="0 0 700.000000 700.000000"
 preserveAspectRatio="xMidYMid meet">
<metadata>
Created by potrace 1.11, written by Peter Selinger 2001-2013
</metadata>
<g transform="translate(0.000000,700.000000) scale(0.100000,-0.100000)"
fill="#000000" stroke="none">
<path d="M727 6994 c-1 -1 -22 -4 -47 -7 -25 -4 -56 -9 -70 -11 -14 -3 -38 -9
-55 -12 -16 -3 -66 -23 -110 -44 -285 -136 -449 -404 -441 -720 6 -205 80
-377 223 -518 241 -236 587 -292 887 -141 210 105 356 294 408 529 15 65 17
231 4 298 -54 280 -282 526 -555 598 -67 18 -234 37 -244 28z"/>
<path d="M4598 6995 c-2 -1 -33 -5 -69 -8 -135 -11 -267 -74 -364 -172 -68
-68 -57 -48 -490 -940 -40 -82 -116 -240 -170 -350 -54 -110 -136 -279 -183
-375 -46 -96 -127 -263 -179 -370 -53 -107 -117 -240 -143 -295 -26 -55 -107
-221 -180 -370 -73 -148 -158 -324 -190 -390 -32 -66 -99 -205 -150 -310 -268
-552 -261 -534 -261 -640 -1 -141 56 -245 187 -340 74 -54 139 -83 224 -99
173 -33 326 9 438 121 44 44 68 83 143 239 49 102 89 187 89 189 0 1 34 73 75
160 41 86 75 158 75 160 0 3 25 57 56 122 31 65 71 150 89 188 18 39 54 115
80 170 26 55 60 127 75 160 15 33 51 110 80 170 29 61 96 205 150 320 176 378
189 405 193 405 8 0 0 -2372 -7 -2410 -4 -19 -14 -70 -22 -112 -70 -356 -288
-692 -595 -918 -535 -394 -1267 -393 -1801 2 -86 64 -229 200 -290 278 -177
223 -292 503 -324 785 -4 33 -8 555 -9 1160 -1 605 -5 1116 -9 1135 -39 206
-219 381 -419 407 -273 36 -505 -118 -573 -378 -15 -58 -17 -169 -17 -1159 0
-990 3 -1198 19 -1310 62 -436 183 -759 417 -1110 140 -210 337 -422 547 -586
74 -58 228 -162 292 -198 298 -164 527 -246 853 -306 146 -27 684 -26 830 0
291 54 518 129 741 245 133 70 130 68 260 155 350 235 632 547 832 920 119
222 232 549 257 740 3 23 17 113 21 135 14 74 18 312 18 1172 1 534 4 969 9
966 4 -2 7 -8 7 -13 0 -4 28 -66 61 -136 34 -71 76 -160 94 -199 39 -85 203
-434 296 -632 23 -49 56 -119 74 -158 18 -38 54 -115 80 -170 26 -55 61 -129
77 -165 17 -36 55 -117 85 -180 30 -63 59 -124 63 -135 16 -41 89 -123 142
-158 154 -102 361 -108 546 -17 197 98 298 275 263 463 -11 63 -17 76 -181
412 -62 127 -146 300 -187 385 -120 246 -346 711 -528 1085 -53 110 -130 268
-170 350 -40 83 -112 231 -160 330 -140 288 -262 539 -335 690 -285 592 -315
647 -379 712 -35 34 -77 70 -94 79 -76 40 -124 62 -152 69 -16 5 -32 9 -35 10
-19 6 -168 23 -172 20z"/>
</g>
</svg>
